<svg width="1440" height="1024" viewBox="0 0 1440 1024" fill="none" xmlns="http://www.w3.org/2000/svg">
<g clip-path="url(#clip0_0_3)">
<path d="M932.551 383.559C930.921 384.692 929.323 385.842 927.728 387.027C912.347 432.016 904.536 479.295 904.62 526.896C904.614 532.402 904.733 537.894 904.975 543.371C906.673 584.45 914.421 625.043 927.965 663.81C928.679 665.85 929.407 667.882 930.147 669.905C930.678 671.357 931.218 672.822 931.797 674.26C932.376 674.984 932.947 675.695 933.517 676.405C933.556 676.436 933.592 676.489 933.632 676.52C933.861 676.807 934.091 677.094 934.299 677.376C935.285 678.594 936.284 679.804 937.269 681.022L936.489 681.112L934.534 681.328L934.543 681.341C935.201 681.297 935.871 681.244 936.534 681.178C936.775 681.167 937.038 681.161 937.283 681.128C937.503 681.114 937.735 681.09 937.954 681.076C966.194 679.001 995.065 676.244 1020.27 663.368C1046.65 649.88 1068.3 622.347 1065.8 592.573C1065.46 588.674 1064.7 584.824 1063.53 581.093C1063.04 579.534 1062.48 578.007 1061.88 576.485C1058.25 567.162 1052.22 558.988 1044.42 552.802C1036.63 546.615 1027.34 542.641 1017.52 541.286C1007.7 539.932 997.702 541.246 988.552 545.095C979.401 548.943 971.43 555.186 965.456 563.183C971.794 532.156 1004.22 514.981 1033.64 504.092C1063.07 493.209 1096.22 481.716 1110.24 453.378C1118.07 437.607 1117.47 419.679 1111.16 403.389C1110.97 402.902 1110.77 402.402 1110.56 401.911C1102.68 382.765 1087.95 367.329 1069.31 358.688C1034.41 343.17 993.217 351.106 958.935 367.965C949.763 372.481 940.943 377.695 932.551 383.559V383.559Z" fill="#F2F2F2"/>
<path d="M1039.3 577.65C1012.59 581.378 987.768 593.697 968.514 612.788C952.123 629.221 940.409 649.813 934.602 672.402C934.263 673.694 933.96 674.983 933.678 676.276C932.942 675.003 932.224 673.699 931.514 672.407C931.057 671.581 930.591 670.741 930.147 669.905C930.678 671.357 931.218 672.822 931.797 674.26C932.376 674.984 932.947 675.695 933.517 676.405C933.556 676.436 933.592 676.489 933.632 676.52C933.861 676.807 934.091 677.094 934.299 677.376C935.285 678.594 936.284 679.804 937.269 681.022L936.489 681.112L934.534 681.328L934.543 681.341C935.201 681.297 935.871 681.244 936.533 681.178C936.775 681.168 937.038 681.161 937.283 681.128C937.347 680.738 937.432 680.352 937.517 679.965C943.173 650.874 959.049 624.837 982.212 606.663C1005.38 588.489 1034.26 579.406 1063.53 581.093C1063.04 579.534 1062.48 578.007 1061.88 576.485C1054.34 576.208 1046.78 576.598 1039.3 577.65Z" fill="white"/>
<path d="M945.07 468.298C934.674 476.947 925.583 487.086 918.085 498.394C914.185 504.417 910.847 510.794 908.116 517.443C906.819 520.53 905.653 523.7 904.62 526.896C904.614 532.402 904.733 537.893 904.975 543.371C905.787 539.184 906.819 535.045 908.067 530.97C908.711 528.734 909.439 526.538 910.22 524.364C918.981 500.021 935.953 480.338 956.324 465.029C978.155 448.648 1003.03 435.96 1028.37 426.211C1054.34 416.178 1081.43 409.403 1109.04 406.037C1109.66 405.957 1110.23 405.637 1110.63 405.144C1111.02 404.65 1111.21 404.022 1111.16 403.389C1111.16 402.835 1110.94 402.305 1110.56 401.911C1110.35 401.727 1110.11 401.594 1109.85 401.522C1109.58 401.451 1109.31 401.443 1109.04 401.499C1105.63 401.914 1102.24 402.344 1098.84 402.867C1070.61 407.125 1043.02 414.919 1016.69 426.066C991.27 436.792 966.246 450.336 945.07 468.298Z" fill="white"/>
<path d="M1079.24 329.712C1084.48 329.712 1088.73 325.415 1088.73 320.115C1088.73 314.814 1084.48 310.518 1079.24 310.518C1073.99 310.518 1069.75 314.814 1069.75 320.115C1069.75 325.415 1073.99 329.712 1079.24 329.712Z" fill="#F2F2F2"/>
<path d="M893.532 807.924H659.554C645.527 807.908 632.078 802.265 622.159 792.235C612.241 782.204 606.661 768.605 606.645 754.419V155.504C606.661 141.319 612.241 127.719 622.159 117.689C632.078 107.658 645.527 102.016 659.554 102H893.532C907.56 102.016 921.008 107.658 930.927 117.689C940.846 127.719 946.426 141.319 946.441 155.504V754.419C946.426 768.605 940.846 782.204 930.927 792.235C921.008 802.265 907.56 807.908 893.532 807.924V807.924Z" fill="black"/>
<path d="M890.914 118.61H864.87C862.545 118.612 860.317 119.547 858.673 121.209C857.029 122.871 856.105 125.125 856.103 127.476C856.098 132.281 854.208 136.889 850.848 140.287C847.488 143.685 842.931 145.597 838.179 145.601H710.801C706.049 145.597 701.493 143.685 698.132 140.287C694.772 136.889 692.882 132.281 692.877 127.476C692.875 125.125 691.951 122.871 690.307 121.209C688.664 119.547 686.435 118.612 684.111 118.61H661.146C650.507 118.624 640.308 122.904 632.786 130.511C625.263 138.118 621.031 148.432 621.017 159.19V753.848C621.031 764.606 625.263 774.92 632.786 782.527C640.308 790.135 650.507 794.414 661.146 794.428H890.914C901.553 794.414 911.752 790.135 919.274 782.527C926.797 774.92 931.029 764.606 931.043 753.848V159.19C931.029 148.432 926.797 138.118 919.274 130.511C911.752 122.904 901.553 118.624 890.914 118.61V118.61Z" fill="white"/>
<path d="M806.571 130.548H734.71C734.03 130.548 733.377 130.275 732.896 129.788C732.414 129.302 732.144 128.641 732.144 127.953C732.144 127.265 732.414 126.605 732.896 126.118C733.377 125.631 734.03 125.358 734.71 125.358H806.571C807.251 125.358 807.904 125.631 808.385 126.118C808.867 126.605 809.137 127.265 809.137 127.953C809.137 128.641 808.867 129.302 808.385 129.788C807.904 130.275 807.251 130.548 806.571 130.548Z" fill="white"/>
<path d="M817.863 130.029C818.997 130.029 819.916 129.1 819.916 127.953C819.916 126.806 818.997 125.877 817.863 125.877C816.729 125.877 815.81 126.806 815.81 127.953C815.81 129.1 816.729 130.029 817.863 130.029Z" fill="white"/>
<path d="M948.495 338.173C947.27 338.172 946.096 337.679 945.229 336.803C944.363 335.927 943.876 334.74 943.875 333.501V242.147C943.875 240.908 944.362 239.719 945.228 238.843C946.094 237.967 947.269 237.475 948.495 237.475C949.72 237.475 950.895 237.967 951.761 238.843C952.627 239.719 953.114 240.908 953.114 242.147V333.501C953.113 334.74 952.626 335.927 951.76 336.803C950.893 337.679 949.719 338.172 948.495 338.173V338.173Z" fill="#3F3D56"/>
<path d="M606.645 270.695C605.421 270.694 604.246 270.201 603.38 269.325C602.514 268.449 602.027 267.262 602.026 266.023V245.261C602.026 244.022 602.512 242.834 603.379 241.958C604.245 241.082 605.42 240.589 606.645 240.589C607.87 240.589 609.046 241.082 609.912 241.958C610.778 242.834 611.265 244.022 611.265 245.261V266.023C611.264 267.262 610.776 268.449 609.91 269.325C609.044 270.201 607.87 270.694 606.645 270.695Z" fill="black"/>
<path d="M606.645 309.106C605.421 309.104 604.246 308.612 603.38 307.736C602.514 306.86 602.027 305.673 602.026 304.434V283.672C602.026 282.433 602.512 281.244 603.379 280.368C604.245 279.492 605.42 279 606.645 279C607.87 279 609.046 279.492 609.912 280.368C610.778 281.244 611.265 282.433 611.265 283.672V304.434C611.264 305.673 610.776 306.86 609.91 307.736C609.044 308.612 607.87 309.104 606.645 309.106V309.106Z" fill="black"/>
<path d="M1029.75 810H345.027C344.754 810 344.493 809.891 344.301 809.696C344.108 809.501 344 809.237 344 808.962C344 808.687 344.108 808.423 344.301 808.228C344.493 808.033 344.754 807.924 345.027 807.924H1029.75C1030.02 807.924 1030.28 808.033 1030.48 808.228C1030.67 808.423 1030.78 808.687 1030.78 808.962C1030.78 809.237 1030.67 809.501 1030.48 809.696C1030.28 809.891 1030.02 810 1029.75 810Z" fill="black"/>
<path d="M408.314 797.438H420.9L426.887 748.347H408.312L408.314 797.438Z" fill="#FFB6B6"/>
<path d="M405.103 793.282L429.889 793.281H429.89C434.079 793.282 438.097 794.965 441.059 797.96C444.021 800.955 445.685 805.018 445.685 809.254V809.773L405.104 809.775L405.103 793.282Z" fill="black"/>
<path d="M524.317 797.438H536.902L542.889 748.347H524.315L524.317 797.438Z" fill="#FFB6B6"/>
<path d="M521.106 793.282L545.892 793.281H545.893C550.082 793.282 554.099 794.965 557.062 797.96C560.024 800.955 561.688 805.018 561.688 809.254V809.773L521.107 809.775L521.106 793.282Z" fill="black"/>
<path d="M509.12 403.056L517.333 456L439.313 457.038L449.579 406.17L509.12 403.056Z" fill="#FFB6B6"/>
<path d="M520.413 442.504L539.918 509.982L542.998 787.268H521.953L471.651 564.484L425.455 781.452H404.924L419.296 537.493C419.296 537.493 412.11 477.282 436.747 459.633V444.147L520.413 442.504Z" fill="black"/>
<path d="M408.481 495.232C410.654 494.634 412.67 493.561 414.388 492.089C416.106 490.617 417.483 488.782 418.424 486.713C419.365 484.645 419.846 482.393 419.833 480.116C419.82 477.839 419.313 475.593 418.349 473.535L451.54 364.108L427.127 359.214L396.771 466.476C393.46 468.343 390.942 471.374 389.693 474.993C388.444 478.613 388.552 482.57 389.995 486.114C391.439 489.659 394.118 492.545 397.525 494.225C400.932 495.906 404.831 496.264 408.481 495.232V495.232Z" fill="#FFB6B6"/>
<path d="M501.085 293.864C514.836 279.959 514.836 257.413 501.085 243.507C487.334 229.602 465.039 229.601 451.288 243.507C437.537 257.413 437.537 279.959 451.288 293.864C465.039 307.77 487.334 307.77 501.085 293.864Z" fill="#FFB6B6"/>
<path d="M451.008 431.603C449.626 431.326 448.372 430.597 447.438 429.529C446.504 428.461 445.943 427.113 445.84 425.692C445.066 414.97 441.236 396.336 434.458 370.307C432.93 364.424 432.65 358.28 433.635 352.28C434.621 346.28 436.849 340.558 440.175 335.49C443.501 330.422 447.849 326.122 452.934 322.873C458.019 319.624 463.725 317.499 469.68 316.636V316.636C475.324 315.81 481.075 316.137 486.592 317.598C492.109 319.059 497.28 321.624 501.8 325.142C506.319 328.659 510.095 333.057 512.904 338.076C515.714 343.096 517.499 348.633 518.154 354.362C521.508 384.231 515.182 414.237 512.306 425.75C511.958 427.136 511.169 428.368 510.062 429.258C508.955 430.148 507.59 430.646 506.175 430.677L452.395 431.727C451.93 431.737 451.465 431.695 451.008 431.603V431.603Z" fill="#E4E4E4"/>
<path d="M602.51 336.176C602.187 336.908 601.922 337.666 601.716 338.441L534.398 361.573L521.39 350.082L501.674 367.667L522.747 390.274C524.45 392.1 526.692 393.319 529.137 393.746C531.583 394.174 534.1 393.788 536.31 392.647L608.345 355.438C610.95 357.054 613.98 357.829 617.031 357.661C620.083 357.493 623.011 356.39 625.428 354.498C627.844 352.606 629.633 350.014 630.558 347.069C631.482 344.123 631.498 340.963 630.603 338.008C629.708 335.053 627.944 332.444 625.547 330.527C623.149 328.611 620.232 327.477 617.182 327.278C614.133 327.08 611.095 327.824 608.474 329.414C605.853 331.003 603.773 333.361 602.51 336.176H602.51Z" fill="#FFB6B6"/>
<path d="M532.051 362.838L507.511 384.513C506.812 385.13 505.991 385.587 505.102 385.854C504.213 386.12 503.278 386.19 502.36 386.058C501.442 385.927 500.563 385.597 499.783 385.09C499.003 384.584 498.34 383.914 497.839 383.125L480.285 355.484C477.186 351.853 475.636 347.128 475.976 342.344C476.316 337.559 478.519 333.107 482.1 329.962C485.682 326.817 490.35 325.237 495.082 325.568C499.814 325.898 504.223 328.113 507.343 331.726L531.992 352.959C532.698 353.567 533.265 354.322 533.656 355.172C534.047 356.022 534.253 356.947 534.258 357.885C534.264 358.822 534.07 359.75 533.689 360.605C533.308 361.459 532.749 362.221 532.051 362.838V362.838Z" fill="#E4E4E4"/>
<path d="M447.662 392.126L417.336 380.078C416.473 379.735 415.693 379.208 415.05 378.533C414.406 377.858 413.914 377.051 413.607 376.166C413.3 375.282 413.185 374.341 413.271 373.407C413.356 372.473 413.639 371.569 414.1 370.756L430.281 342.272C432.039 337.816 435.474 334.247 439.831 332.348C444.187 330.449 449.111 330.375 453.522 332.143C457.933 333.91 461.47 337.374 463.358 341.776C465.247 346.177 465.332 351.156 463.595 355.621L456.307 387.524C456.098 388.438 455.697 389.295 455.131 390.037C454.565 390.78 453.847 391.39 453.027 391.827C452.206 392.263 451.302 392.516 450.377 392.568C449.451 392.62 448.525 392.469 447.662 392.126V392.126Z" fill="#E4E4E4"/>
<path d="M492.467 260.71C500.14 268.633 510.558 277.286 520.908 272.56C527.703 269.457 531.139 261.878 530.093 254.412C528.212 240.987 517.368 233.068 506.792 226.545C493.043 218.065 477.756 210.446 461.675 211.322C445.594 212.198 429.127 224.474 428.807 240.756C428.55 253.85 438.286 266.74 434.114 279.138C429.916 291.617 414.341 295.506 401.309 295.274C388.277 295.042 374.053 292.955 363.218 300.282C349.397 309.63 348.192 331.047 356.634 345.533C365.076 360.019 380.362 368.883 395.491 375.858C415.536 385.1 437.764 392.301 459.373 387.963C480.981 383.626 500.926 364.288 499.267 342.074C498.566 332.69 494.282 324.02 490.153 315.587C486.023 307.155 481.888 298.373 481.526 288.97C481.224 281.135 484.235 272.711 490.241 268.083C491.326 267.279 492.132 266.149 492.541 264.854C492.951 263.559 492.945 262.166 492.523 260.874L492.467 260.71Z" fill="black"/>
<path d="M923.143 413.316C912.037 420.052 892.251 428.491 872.032 419.818L858.962 414.211L885.154 384.521C864.253 361.217 852.69 330.873 852.722 299.412C852.754 267.951 864.378 237.631 885.326 214.37C906.273 191.109 935.041 176.577 966.013 173.61C996.986 170.643 1027.94 179.455 1052.83 198.324C1077.73 217.194 1094.78 244.767 1100.65 275.663C1106.52 306.558 1100.8 338.558 1084.6 365.416C1068.39 392.274 1042.88 412.063 1013.02 420.92C983.171 429.777 951.125 427.066 923.143 413.316V413.316Z" fill="white"/>
<path d="M923.211 414.917C912.54 421.252 892.212 430.008 871.487 421.117L856.624 414.742L883.28 384.524C866.695 365.658 856 342.251 852.544 317.251C849.088 292.251 853.024 266.775 863.857 244.033C874.69 221.29 891.936 202.298 913.422 189.448C934.908 176.597 959.674 170.464 984.601 171.819C1009.53 173.174 1033.5 181.958 1053.5 197.065C1073.5 212.171 1088.63 232.924 1096.99 256.71C1105.35 280.496 1106.56 306.251 1100.47 330.733C1094.39 355.214 1081.27 377.327 1062.78 394.285V394.285C1044.21 411.42 1021 422.542 996.121 426.219C971.247 429.895 945.854 425.959 923.211 414.917V414.917ZM1069.43 215.51C1058.52 203.334 1045.35 193.45 1030.66 186.425C1015.97 179.399 1000.06 175.369 983.827 174.564C967.598 173.759 951.372 176.196 936.075 181.735C920.777 187.273 906.709 195.806 894.673 206.844C882.637 217.883 872.87 231.211 865.93 246.068C858.99 260.925 855.012 277.019 854.224 293.431C853.436 309.842 855.853 326.25 861.338 341.717C866.822 357.184 875.266 371.407 886.188 383.572L887.031 384.513L861.301 413.681L872.577 418.518C892.593 427.105 912.4 418.185 922.425 412.106L923.073 411.712L923.753 412.046C949.595 424.744 979.003 427.948 1006.93 421.109C1034.85 414.269 1059.55 397.812 1076.78 374.563C1094.02 351.314 1102.71 322.724 1101.37 293.701C1100.02 264.677 1088.73 237.032 1069.43 215.51V215.51Z" fill="black"/>
<path opacity="0.1" d="M1083.41 298.753C1083.41 269.662 1072.64 241.625 1053.21 220.165C1033.79 198.705 1007.13 185.376 978.472 182.804C981.825 182.507 985.217 182.346 988.646 182.346C1019.17 182.362 1048.43 194.633 1070 216.462C1091.58 238.291 1103.7 267.89 1103.7 298.753C1103.7 329.615 1091.58 359.214 1070 381.043C1048.43 402.872 1019.17 415.143 988.646 415.159C985.222 415.159 981.836 414.996 978.488 414.7C1007.14 412.124 1033.8 398.794 1053.22 377.334C1072.64 355.875 1083.41 327.841 1083.41 298.753V298.753Z" fill="black"/>
<path d="M994.053 275.54H911.8V283.264H994.053V275.54Z" fill="black"/>
<path d="M1055.16 302.261H911.8V309.985H1055.16V302.261Z" fill="black"/>
<path d="M1055.02 328.982H911.8V336.706H1055.02V328.982Z" fill="black"/>
<path d="M663.976 610.178C652.288 599.457 644.005 585.472 640.176 569.992C636.346 554.511 637.143 538.229 642.464 523.206C647.785 508.183 657.392 495.093 670.07 485.591C682.748 476.089 697.927 470.602 713.689 469.825C729.45 469.047 745.086 473.013 758.619 481.221C772.151 489.43 782.973 501.512 789.715 515.94C796.457 530.368 798.817 546.494 796.497 562.278C794.176 578.063 787.279 592.796 776.678 604.617L793.384 623.555L785.047 627.131C772.15 632.663 759.53 627.28 752.446 622.984C738.12 630.023 722.039 632.565 706.272 630.283C690.505 628.001 675.774 620.999 663.976 610.178V610.178Z" fill="white"/>
<path d="M717.474 632.068C697.458 632.052 678.168 624.484 663.378 610.845C651.584 600.028 643.219 585.924 639.336 570.308C635.453 554.693 636.226 538.265 641.558 523.093C646.89 507.921 656.542 494.684 669.299 485.049C682.055 475.413 697.346 469.811 713.246 468.946C729.145 468.081 744.942 471.994 758.647 480.19C772.352 488.387 783.352 500.501 790.262 515.007C797.172 529.513 799.682 545.763 797.478 561.709C795.273 577.655 788.452 592.586 777.873 604.619L794.875 623.893L785.395 627.96C772.176 633.631 759.21 628.046 752.403 624.005C741.504 629.302 729.567 632.058 717.474 632.068ZM664.575 609.511C676.216 620.255 690.786 627.209 706.388 629.467C721.99 631.725 737.903 629.184 752.057 622.174L752.491 621.961L752.904 622.212C759.299 626.09 771.933 631.779 784.699 626.302L791.892 623.217L775.48 604.612L776.018 604.012C786.501 592.324 793.321 577.754 795.616 562.146C797.911 546.538 795.577 530.592 788.91 516.325C782.243 502.058 771.542 490.111 758.161 481.994C744.779 473.877 729.318 469.955 713.732 470.724C698.147 471.493 683.136 476.919 670.6 486.314C658.064 495.71 648.564 508.654 643.302 523.51C638.04 538.365 637.253 554.465 641.039 569.773C644.826 585.081 653.016 598.91 664.575 609.511V609.511Z" fill="black"/>
<path opacity="0.1" d="M650.221 549.91C650.222 531.354 657.093 513.472 669.482 499.783C681.87 486.095 698.877 477.593 717.155 475.952C715.016 475.763 712.853 475.66 710.665 475.66C691.199 475.671 672.533 483.498 658.772 497.422C645.011 511.345 637.281 530.225 637.281 549.91C637.281 569.595 645.011 588.475 658.772 602.398C672.533 616.322 691.199 624.149 710.665 624.16C712.849 624.16 715.009 624.056 717.145 623.867C698.869 622.223 681.864 613.721 669.478 600.033C657.092 586.345 650.222 568.464 650.221 549.91V549.91Z" fill="black"/>
<path d="M759.682 535.104H707.216V540.031H759.682V535.104Z" fill="black"/>
<path d="M759.682 552.148H668.239V557.075H759.682V552.148Z" fill="black"/>
<path d="M759.682 569.192H668.329V574.118H759.682V569.192Z" fill="black"/>
<path d="M819.668 641.963C825.904 641.963 830.96 636.851 830.96 630.544C830.96 624.237 825.904 619.124 819.668 619.124C813.431 619.124 808.375 624.237 808.375 630.544C808.375 636.851 813.431 641.963 819.668 641.963Z" fill="black"/>
<path d="M836.093 431.224C843.463 431.224 849.438 425.182 849.438 417.729C849.438 410.275 843.463 404.233 836.093 404.233C828.722 404.233 822.747 410.275 822.747 417.729C822.747 425.182 828.722 431.224 836.093 431.224Z" fill="black"/>
</g>
<defs>
<clipPath id="clip0_0_3">
<rect width="772" height="708" fill="white" transform="translate(344 102)"/>
</clipPath>
</defs>
</svg>
